# xmcd
#
# Track frame offsets:
#	150
#	21014
#	37038
#	62737
#	76046
#	92072
#	104756
#	117722
#	128396
#	140670
#	152825
#	166314
#	180939
#	206336
#	213818
#
# Disc length: 3024 seconds
#
# Revision: 1
# Processed by: cddbd v1.5.2PL0 Copyright (c) Steve Scherf et al.
# Submitted via: audiograbber 1.83.01
#
DISCID=c40bce0f
DTITLE=Fleetwood Mac - Biggest Hits
DYEAR=1990
DGENRE=Blues Rock
TTITLE0=The Green Manalishi
TTITLE1=Oh Well Part 1
TTITLE2=Oh Well Part 2
TTITLE3=Shake Your Moneymaker
TTITLE4=Rattle, Snake, Shake
TTITLE5=Dragonfly
TTITLE6=Man Of The World
TTITLE7=Stop Messin´ Round
TTITLE8=Coming Home
TTITLE9=The Big Boat With Eddy Boyd
TTITLE10=I Belive My Time Ain´t Long
TTITLE11=The Sun Is Shining
TTITLE12=Just The Blues With Eddy Boyd
TTITLE13=Jigsaw Puzzle Blues
TTITLE14=Looking For Somebody
EXTD=
EXTT0=
EXTT1=
EXTT2=
EXTT3=
EXTT4=
EXTT5=
EXTT6=
EXTT7=
EXTT8=
EXTT9=
EXTT10=
EXTT11=
EXTT12=
EXTT13=
EXTT14=
PLAYORDER=
